<svg id="Layer_1" xmlns="http://www.w3.org/2000/svg" viewBox="0 0 340 146"><style>.st0{fill:#f5f5f5}.st1{fill:#0f1626}.st2{enable-background:new}.st3{fill:#c9bdaa}</style><g id="Layer_7"><path id="rect4219" class="st0" d="M0 0h170v146H0z"/></g><g id="Layer_6"><path id="rect4222" class="st1" d="M170 0h170v146H170z"/></g><g id="Layer_5"><g id="text4225" class="st2"><path class="st3" d="M164 93.4c-5.2-.2-9.9-1.4-14.2-3.7-4.9-2.6-8.2-6-9.9-10.2l2.9-1c1.5 3.7 4.4 6.7 8.8 8.9 3.8 1.9 8 3 12.6 3.2 6.8.2 12.6-1.4 17.3-4.8 4.3-3.2 6.6-6.9 6.8-11.4.4-8.2-7.2-14.3-22.7-18.3-8.4-2.1-14.7-5-18.9-8.5-4.2-3.6-6.3-7.7-6-12.4.3-6.8 3.5-11.9 9.4-15.2 4.9-2.7 10.8-3.9 17.8-3.6 8.4.3 15.1 2.9 20.1 7.8l-2.3 1.9c-4.4-4.3-10.4-6.7-17.9-7-6.4-.2-11.8.8-16.1 3.2-5 2.8-7.6 7.1-7.9 12.9-.4 8.1 7.2 14.1 22.7 18.1 8.4 2.1 14.7 5 18.9 8.6s6.3 7.7 6 12.5c-.3 5.3-2.9 9.8-8 13.5-4.9 3.6-10.8 5.4-17.8 5.4-.7.2-1.2.1-1.6.1z"/></g></g><g id="Layer_4"><g class="st2"><path class="st1" d="M47.3 17.2V20h-39v33.4h31.4v2.8H8.3v33.7h39v2.8H5.2V17.2h42.1z"/></g><g class="st2"><path class="st1" d="M58.2 17.2v72.7h39v2.8H55.1V17.2h3.1z"/></g><g class="st2"><path class="st1" d="M135.1 17.2l-25 38.9v36.6H107V56.1L82 17.2h3.6L108 52.1h1.1l22.4-34.9h3.6z"/></g><g class="st2"><path class="st0" d="M204.7 92.7h-3.1V17.2h3.1v75.5zm64.7-75.5v75.6h-3v-20H229l-13.8 20h-3.7L227 70.4v-.5h.3l36.4-52.7h5.7zM231 69.9h35.4V18.6L231 69.9zm105.1-52.7v75.6h-4.9L283.8 20v72.7h-3.1V17.2h4.8L333 89.9V17.2h3.1z"/></g></g><g id="Layer_3"><g id="text4239" class="st2"><path class="st3" d="M91.3 109.6h2.9c1.5.2 2.5.9 2.9 2.3l2.3 7.2 3.8-9.1c.2-.2.5-.3.8-.3.5 0 1 .6 1.3 1.8l3.2 7.3 1.8-6.3v-.5c0-.2-.5-.3-1.6-.5-.3-.2-.5-.5-.5-.9v-.1c.1-.5.4-.8.8-.8h5.8c.5.2.7.5.7.9 0 .7-.5 1.1-1.4 1.1-.7.3-1.2.9-1.6 1.7l-3.9 11.7c-.2.2-.5.3-.8.3-.7 0-1.1-.5-1.3-1.5l-3.5-8.3-3.8 8.9c-.2.5-.5.8-.9.8h-.1c-.7 0-1.2-.8-1.6-2.3l-3.7-10.1c-.5-.9-1.2-1.4-2-1.4-.3 0-.5-.3-.6-1 .2-.6.5-.9 1-.9zm32.9-.2c3.5 0 5.7 1.7 6.5 5.2l.1 1.1c-.1.7-.4 1-.8 1h-9.2c0 2.7 1 4.4 2.9 5.1.5.2 1.1.3 1.9.3 1.7 0 2.9-.3 3.9-1l.3-.1c.4 0 .8.3 1 1-1.1 1.9-3.1 2.9-6 2.9h-.2c-3.8 0-6.3-1.5-7.6-4.4-.4-1.2-.6-2.3-.6-3.4 0-3.2 1.5-5.5 4.6-7.1 1.2-.4 2.3-.6 3.2-.6zm-3.2 5.3l5.7.1v-.6c-.2-1.9-1.1-2.9-2.6-2.9s-2.5.8-2.9 2.3l-.2 1.1zm15.7-12.3c.7 0 1.1.3 1.1.8v7.8h.1c1.2-1 2.5-1.6 4.1-1.6h.2c3.1 0 5.1 1.9 6.1 5.6l.1 1.1v.8c0 3.3-1.5 5.7-4.6 7.2-1.2.5-2.6.8-4 .8-3.9-.1-5.8-.6-5.8-1.3v-16.9c0-1.1-.5-1.6-1.4-1.6-.7 0-1.1-.3-1.1-.9v-.4c0-.5.6-.7 1.7-.7 1.9-.5 3.1-.7 3.5-.7zm1.1 12.3v6.4c0 .7.7 1.2 2.1 1.7l.5.1c2.3 0 3.5-1.9 3.5-5.6v-.6c0-3-.9-4.5-2.7-4.5h-.1c-1.1 0-2.1.6-3 1.7-.2.2-.3.5-.3.8zm34.5 10.1h-1.1c-1.2 0-2.2-.5-2.8-1.4-1.3 1.1-2.7 1.6-4.2 1.6h-.1c-3.1 0-5.1-1.6-6.1-4.9-.2-.7-.3-1.5-.3-2.3v-.4c0-3.6 1.6-6.1 4.9-7.6.8-.2 1.6-.3 2.6-.3s2 .1 3 .4v-5.6c.4-1.3 1.4-2 2.9-2.1h2.7c.4 0 .7.3.8.8v.2c0 .6-.5.9-1.6.9-.6.1-.8.6-.8 1.3v19.4zm-4-6.4V114c0-1.1-.8-1.9-2.4-2.4l-.7-.1c-1.8 0-2.9 1.6-3.2 4.7v1.1c0 2.6.6 4.1 1.7 4.5.3.1.7.2 1.1.2 1.6 0 2.7-.8 3.3-2.3l.2-1.3zm14.8-9c3.5 0 5.7 1.7 6.5 5.2l.1 1.1c-.1.7-.4 1-.8 1h-9.2c0 2.7 1 4.4 2.9 5.1.5.2 1.1.3 1.9.3 1.7 0 2.9-.3 3.9-1l.3-.1c.4 0 .8.3 1 1-1.1 1.9-3.1 2.9-6 2.9h-.2c-3.8 0-6.3-1.5-7.6-4.4-.4-1.2-.6-2.3-.6-3.4 0-3.2 1.5-5.5 4.6-7.1 1.3-.4 2.3-.6 3.2-.6zm-3.2 5.3l5.7.1v-.6c-.2-1.9-1.1-2.9-2.6-2.9s-2.5.8-2.9 2.3l-.2 1.1zm16.9-5.3c1.1 0 2.2.3 3.3.9 0-.5.3-.7.9-.7.7.1 1 .3 1 .7-.2.5-.3 1.1-.3 1.9l.1 2.2c-.1.4-.5.6-1.1.6-.5 0-.8-.5-1-1.4-.5-1.4-1.4-2.1-2.9-2.1h-.3c-1.5.1-2.2.7-2.2 1.6v.2c0 .7 1.2 1.3 3.7 2 3.3 1.2 4.9 2.9 4.9 5.2 0 2.1-1.2 3.4-3.5 4.2-.9.2-1.8.3-2.8.3-1.3 0-2.6-.2-3.9-.7-.1.4-.4.7-.8.7h-.2c-.6 0-.8-.2-.8-.7l.2-1.5-.3-3c.2-.4.5-.6.9-.6h.2c.5 0 .8.5 1 1.5.6 1.5 1.9 2.3 3.9 2.3h.1c1.4-.2 2.1-.7 2.1-1.7v-.3c0-1-1.6-2-4.9-3-2.2-.8-3.4-2.2-3.4-4.2 0-1.9 1.2-3.3 3.5-4 .7-.3 1.5-.4 2.6-.4zm12.8 9.5v6h-2.1c-1.3.1-1.9-.8-1.9-2.8v-5.5c0-2.9-.2-4.3-.7-4.3l-1.7-.4-.2-.6v-.2c0-.6.5-.9 1.5-.9l4.3-.6c.5 0 .8.4.9 1.1v8.2zm-.5-13.7c0 .6-.2 1.1-.6 1.5s-1 .6-1.6.6-1.1-.2-1.6-.6c-.4-.4-.6-.9-.6-1.5s.2-1.1.6-1.5c.4-.4 1-.6 1.6-.6s1.1.2 1.6.6c.4.4.6.9.6 1.5zm13.8 22.6c-.1-1.2-1.8-1.9-5-1.9h-2.5c-2.1-.3-3.2-1.3-3.4-3.1v-.1c.2-1.3 1.3-2.3 3.2-3-1.7-1-2.5-2.5-2.5-4.5 0-2.2 1.1-3.9 3.3-5 1.2-.5 2.5-.8 3.9-.8 2.5 0 4.4 1 5.8 2.9.6 1 .8 2 .8 2.9 0 2.9-1.7 4.8-5.2 5.7-.8.1-2 .2-3.8.3-.9.3-1.3.5-1.3.9-.3.5 1.2.7 4.5.6 2.1.2 3.7.8 4.8 1.9.8.9 1.2 2 1 3.2 0 1.8-1.4 3.2-4 4.2-1.6.4-3 .5-4.3.4-1 0-1.8-.2-2.5-.6-1-.6-1.4-1.6-1-2.9.3-1.1 1.2-1.7 2.4-1.8.7 0 1.6.2 3 .5.4 0 .8-.1 1.3-.4 0 .8-.6 1.4-1.9 1.6 0 1.2-.5 1.9-1.5 2.2-.4 0-.8 0-1.1-.1.5-.2.8-.6.8-1.1-.1-.7-.4-1-1-1.1-.7 0-1.1.3-1.3 1 0 .3 0 .6.1.9.4.8 1.4 1.3 2.8 1.3.9-.1 1.7-.2 2.4-.6 1.6-1.1 2.4-2.2 2.2-3.5zm-5.9-12.4c0 2.5.8 3.7 2.5 3.7 1.8 0 2.6-1.1 2.6-3.4v-.7c0-2.5-.8-3.7-2.4-3.7-1.6 0-2.5 1.1-2.7 3.4v.7zm16.5 5.3c.1 2.6-.9 4-3.1 4.1h-2.8c-.4-.2-.6-.5-.6-.9 0-.6.6-1 1.9-1.1.4-.3.6-.6.6-1v-7.6c0-1.5-.5-2.2-1.6-2.2-.7 0-1-.3-1-.8v-.1c0-.6.4-.9 1.3-.9l4.4-.6c.6.1.9.4.9.9v.7c1.4-1.2 2.9-1.8 4.5-1.8h.2c2.6 0 4.3 1.2 5 3.5.2.8.2 1.5.2 2.1v9.9h-2.1c-1.3.1-1.9-.8-1.9-2.8v-6.3c.1-1.6-.2-2.6-.8-3.1-.3-.3-.8-.5-1.4-.5-1.8 0-3 .8-3.5 2.4-.1.8-.2 1.9-.2 3.2v2.9z"/></g></g><g id="Layer_2_1_"><circle id="circle4242" cx="207" cy="105.3" r="3.1" fill="#ff533d"/></g></svg>